<svg width="30" height="30" viewBox="0 0 30 30" fill="none" xmlns="http://www.w3.org/2000/svg">
<path d="M3.75 13.75V19.7502C3.75 21.1504 3.75 21.8501 4.02248 22.3849C4.26217 22.8553 4.64434 23.2381 5.11475 23.4778C5.649 23.75 6.34874 23.75 7.74614 23.75H22.2539C23.6513 23.75 24.35 23.75 24.8842 23.4778C25.3547 23.2381 25.7381 22.8553 25.9778 22.3849C26.25 21.8506 26.25 21.1519 26.25 19.7545V13.75M3.75 13.75V11.25M3.75 13.75H26.25M3.75 11.25V10.2502C3.75 8.85011 3.75 8.14953 4.02248 7.61475C4.26217 7.14434 4.64434 6.76217 5.11475 6.52248C5.64953 6.25 6.35011 6.25 7.75024 6.25H22.2502C23.6504 6.25 24.3495 6.25 24.8842 6.52248C25.3547 6.76217 25.7381 7.14434 25.9778 7.61475C26.25 8.149 26.25 8.84874 26.25 10.2461V11.25M3.75 11.25H26.25M8.75 18.75H13.75M26.25 13.75V11.25" stroke="#169E79" stroke-width="2" stroke-linecap="round" stroke-linejoin="round"/>
</svg>
