<svg width="20" height="19" viewBox="0 0 20 19" fill="none" xmlns="http://www.w3.org/2000/svg">
<g clip-path="url(#clip0_179_2117)">
<path d="M20 19H15V17.4167H18.3333V14.25H20V19ZM20 2.375C20 1.74511 19.7366 1.14102 19.2678 0.695621C18.7989 0.250222 18.163 0 17.5 0L15 0V1.58333H17.5C17.721 1.58333 17.933 1.66674 18.0893 1.81521C18.2455 1.96367 18.3333 2.16504 18.3333 2.375V4.75H20V2.375ZM5 17.4167H1.66667V14.25H0V19H5V17.4167ZM1.66667 2.375C1.66667 2.16504 1.75446 1.96367 1.91074 1.81521C2.06702 1.66674 2.27899 1.58333 2.5 1.58333H5V0H2.5C1.83696 0 1.20107 0.250222 0.732233 0.695621C0.263392 1.14102 0 1.74511 0 2.375L0 4.75H1.66667V2.375ZM13.3333 9.5C13.3333 8.87369 13.1378 8.26145 12.7716 7.74069C12.4053 7.21994 11.8847 6.81406 11.2756 6.57438C10.6665 6.3347 9.9963 6.27199 9.3497 6.39418C8.7031 6.51637 8.10915 6.81796 7.64298 7.26083C7.1768 7.70369 6.85933 8.26794 6.73072 8.88221C6.6021 9.49649 6.66811 10.1332 6.9204 10.7118C7.17269 11.2905 7.59994 11.785 8.1481 12.133C8.69626 12.4809 9.34073 12.6667 10 12.6667C10.8841 12.6667 11.7319 12.333 12.357 11.7392C12.9821 11.1453 13.3333 10.3399 13.3333 9.5ZM11.6667 9.5C11.6667 9.81315 11.5689 10.1193 11.3858 10.3797C11.2026 10.64 10.9423 10.843 10.6378 10.9628C10.3333 11.0826 9.99815 11.114 9.67485 11.0529C9.35155 10.9918 9.05458 10.841 8.82149 10.6196C8.5884 10.3982 8.42967 10.116 8.36536 9.80889C8.30105 9.50176 8.33405 9.1834 8.4602 8.89408C8.58635 8.60477 8.79997 8.35749 9.07405 8.18351C9.34813 8.00953 9.67036 7.91667 10 7.91667C10.442 7.91667 10.8659 8.08348 11.1785 8.38041C11.4911 8.67735 11.6667 9.08007 11.6667 9.5Z" fill="#169E79"/>
</g>
<defs>
<clipPath id="clip0_179_2117">
<rect width="20" height="19" fill="white"/>
</clipPath>
</defs>
</svg>
