<svg width="20" height="19" viewBox="0 0 20 19" fill="none" xmlns="http://www.w3.org/2000/svg">
<g clip-path="url(#clip0_179_2113)">
<path d="M1.5651 4.05421L0.244263 2.79942L1.4226 1.68001L2.74426 2.9348C2.9029 3.0789 3.11394 3.15933 3.33343 3.15933C3.55292 3.15933 3.76396 3.0789 3.9226 2.9348L6.91093 0.0966721L8.08926 1.21609L5.10093 4.05421C4.86878 4.2748 4.59316 4.44977 4.28982 4.56915C3.98648 4.68853 3.66135 4.74998 3.33301 4.74998C3.00467 4.74998 2.67955 4.68853 2.37621 4.56915C2.07286 4.44977 1.79725 4.2748 1.5651 4.05421ZM10.0001 3.95842H20.0001V2.37509H10.0001V3.95842ZM3.33343 11.0834C3.66186 11.0843 3.9872 11.0233 4.29061 10.9038C4.59401 10.7844 4.86944 10.6089 5.10093 10.3875L8.08926 7.54942L6.91093 6.43001L3.9226 9.26813C3.76396 9.41224 3.55292 9.49266 3.33343 9.49266C3.11394 9.49266 2.9029 9.41224 2.74426 9.26813L1.4226 8.01334L0.244263 9.13276L1.5651 10.3875C1.79679 10.6088 2.07238 10.7843 2.37591 10.9037C2.67944 11.0232 3.00489 11.0842 3.33343 11.0834ZM10.0001 10.2918H20.0001V8.70842H10.0001V10.2918ZM3.33343 17.4168C3.66186 17.4176 3.9872 17.3566 4.29061 17.2371C4.59401 17.1177 4.86944 16.9422 5.10093 16.7209L8.08926 13.8828L6.91093 12.7633L3.9226 15.6015C3.76396 15.7456 3.55292 15.826 3.33343 15.826C3.11394 15.826 2.9029 15.7456 2.74426 15.6015L1.4226 14.3467L0.244263 15.4661L1.5651 16.7209C1.79679 16.9422 2.07238 17.1176 2.37591 17.237C2.67944 17.3565 3.00489 17.4176 3.33343 17.4168ZM10.0001 16.6251H20.0001V15.0418H10.0001V16.6251Z" fill="#169E79"/>
</g>
<defs>
<clipPath id="clip0_179_2113">
<rect width="20" height="19" fill="white"/>
</clipPath>
</defs>
</svg>
