<svg width="17" height="17" viewBox="0 0 17 17" fill="none" xmlns="http://www.w3.org/2000/svg">
<g clip-path="url(#clip0_56_619)">
<path d="M15.5833 11.3329V14.8746C15.5833 15.0624 15.5087 15.2426 15.3759 15.3754C15.243 15.5083 15.0629 15.5829 14.875 15.5829H2.125C1.93714 15.5829 1.75697 15.5083 1.62413 15.3754C1.49129 15.2426 1.41667 15.0624 1.41667 14.8746V11.3329H0V14.8746C0 15.4382 0.223883 15.9787 0.622398 16.3772C1.02091 16.7757 1.56141 16.9996 2.125 16.9996H14.875C15.4386 16.9996 15.9791 16.7757 16.3776 16.3772C16.7761 15.9787 17 15.4382 17 14.8746V11.3329H15.5833Z" fill="#C2EDE9"/>
<path d="M8.47655 -0.000175049C8.1976 -0.000944018 7.92124 0.0533445 7.66332 0.159579C7.40539 0.265813 7.17096 0.421905 6.97347 0.618908L4.19751 3.39487L5.19909 4.39645L7.77318 1.82307L7.79159 13.4582H9.20826L9.18984 1.83299L11.7533 4.39645L12.7549 3.39487L9.97893 0.618908C9.78157 0.421927 9.54726 0.265843 9.28945 0.159607C9.03164 0.0533703 8.75539 -0.000928163 8.47655 -0.000175049Z" fill="#C2EDE9"/>
</g>
<defs>
<clipPath id="clip0_56_619">
<rect width="17" height="17" fill="white"/>
</clipPath>
</defs>
</svg>
