<svg width="15" height="12" viewBox="0 0 15 12" fill="none" xmlns="http://www.w3.org/2000/svg">
<path d="M1 2.25009V9.00009C1 9.70016 1 10.0499 1.15441 10.3173C1.29023 10.5525 1.50679 10.7441 1.77336 10.864C2.0761 11.0001 2.47262 11.0001 3.26448 11.0001H11.4855C12.2774 11.0001 12.6733 11.0001 12.9761 10.864C13.2426 10.7441 13.4599 10.5527 13.5957 10.3175C13.7502 10.0501 13.7502 9.70003 13.7502 8.99997L13.7502 4.24995C13.7502 3.54989 13.7502 3.19985 13.5957 2.93246C13.4599 2.69726 13.2428 2.50618 12.9762 2.38633C12.6732 2.25009 12.2767 2.25009 11.4833 2.25009H7.375M1 2.25009H7.375M1 2.25009C1 1.55974 1.63426 1.00009 2.41667 1.00009H5.01945C5.36595 1.00009 5.53961 1.00009 5.70265 1.03463C5.8472 1.06525 5.98515 1.11588 6.1119 1.18442C6.25482 1.2617 6.37754 1.36998 6.6224 1.58603L7.375 2.25009" stroke="#C2EDE9" stroke-width="2" stroke-linecap="round" stroke-linejoin="round"/>
</svg>
